<svg id="Capa_1" data-name="Capa 1" xmlns="http://www.w3.org/2000/svg" viewBox="0 0 841.89 595.28"><defs><style>.cls-1{fill:#cdcccc;stroke:#fff;stroke-miterlimit:10;stroke-width:0.85px;}.cls-2{fill:#999;}</style></defs><title>Sin título-1_Mesa de trabajo 1</title><rect class="cls-1" x="143.25" y="440.24" width="23.89" height="25.02"/><rect class="cls-1" x="143.25" y="470.59" width="23.89" height="20.07"/><rect class="cls-1" x="167.78" y="470.59" width="23.89" height="20.07"/><rect class="cls-1" x="192.3" y="470.59" width="23.89" height="20.07"/><rect class="cls-1" x="216.83" y="470.59" width="23.89" height="20.07"/><rect class="cls-1" x="241.37" y="470.59" width="23.89" height="20.07"/><rect class="cls-1" x="143.26" y="352.43" width="23.89" height="19.14"/><rect class="cls-1" x="167.79" y="352.43" width="23.89" height="19.14"/><rect class="cls-1" x="192.31" y="352.43" width="23.89" height="19.14"/><rect class="cls-1" x="216.78" y="352.43" width="23.89" height="19.14"/><rect class="cls-1" x="241.38" y="352.43" width="23.89" height="19.14"/><rect class="cls-1" x="279.08" y="470.59" width="23.89" height="20.07"/><rect class="cls-1" x="303.64" y="470.59" width="23.89" height="20.07"/><rect class="cls-1" x="328.17" y="470.59" width="18.83" height="20.07"/><rect class="cls-1" x="347.61" y="470.59" width="18.81" height="20.07"/><rect class="cls-1" x="455.67" y="470.62" width="20.07" height="20.07"/><rect class="cls-1" x="476.65" y="470.62" width="22.72" height="20.07"/><rect class="cls-1" x="500.29" y="470.62" width="23.76" height="20.07"/><rect class="cls-1" x="524.96" y="470.62" width="18.51" height="20.07"/><rect class="cls-1" x="544.38" y="470.62" width="20.4" height="20.07"/><rect class="cls-1" x="578.62" y="470.62" width="20.4" height="20.07"/><rect class="cls-1" x="599.72" y="470.62" width="18.08" height="20.07"/><rect class="cls-1" x="618.59" y="470.62" width="19.05" height="20.07"/><rect class="cls-1" x="638.38" y="470.62" width="18.44" height="20.07"/><rect class="cls-1" x="657.55" y="470.62" width="19.18" height="20.07"/><rect class="cls-1" x="677.46" y="470.62" width="19.91" height="20.07"/><rect class="cls-1" x="578.62" y="440.21" width="20.4" height="25.41"/><rect class="cls-1" x="599.72" y="440.21" width="18.08" height="25.41"/><rect class="cls-1" x="618.59" y="440.21" width="19.05" height="25.41"/><rect class="cls-1" x="638.38" y="440.21" width="18.44" height="25.41"/><rect class="cls-1" x="657.55" y="440.21" width="19.18" height="25.41"/><rect class="cls-1" x="677.46" y="440.21" width="19.91" height="25.41"/><rect class="cls-1" x="578.81" y="377.66" width="20.4" height="24.9"/><rect class="cls-1" x="600.14" y="377.66" width="18.08" height="24.77"/><rect class="cls-1" x="618.95" y="377.44" width="19.05" height="25.12"/><rect class="cls-1" x="638.74" y="377.44" width="18.44" height="25.12"/><rect class="cls-1" x="657.92" y="377.44" width="19.18" height="25.12"/><rect class="cls-1" x="677.83" y="377.44" width="19.91" height="25.12"/><rect class="cls-1" x="578.73" y="352.43" width="20.62" height="20.28"/><rect class="cls-1" x="600.14" y="352.43" width="18.08" height="20.17"/><rect class="cls-1" x="618.95" y="352.43" width="19.05" height="20.28"/><rect class="cls-1" x="638.74" y="352.43" width="18.44" height="20.28"/><rect class="cls-1" x="657.92" y="352.43" width="19.18" height="20.28"/><rect class="cls-1" x="677.83" y="352.43" width="19.91" height="20.28"/><rect class="cls-1" x="458.18" y="354.14" width="21.77" height="18.57"/><rect class="cls-1" x="480.87" y="354.14" width="38.35" height="18.46"/><rect class="cls-1" x="520.56" y="352.43" width="22.9" height="20.28"/><rect class="cls-1" x="544.5" y="352.43" width="20.28" height="20.28"/><rect class="cls-1" x="520.56" y="377.66" width="22.9" height="24.9"/><rect class="cls-1" x="495.83" y="377.66" width="23.82" height="24.9"/><rect class="cls-1" x="471.83" y="377.55" width="23.09" height="25.01"/><rect class="cls-1" x="445.44" y="377.55" width="25.47" height="25.01"/><rect class="cls-1" x="544.38" y="377.66" width="20.4" height="24.9"/><rect class="cls-1" x="541.39" y="440.28" width="23.39" height="25.41"/><rect class="cls-1" x="516.9" y="440.28" width="23.39" height="25.41"/><rect class="cls-1" x="492.38" y="440.28" width="23.39" height="25.41"/><rect class="cls-1" x="467.86" y="440.28" width="23.39" height="25.41"/><rect class="cls-1" x="167.78" y="440.24" width="23.89" height="25.02"/><rect class="cls-1" x="192.3" y="440.24" width="23.89" height="25.02"/><rect class="cls-1" x="216.83" y="440.24" width="23.89" height="25.02"/><rect class="cls-1" x="241.36" y="440.24" width="23.93" height="25.02"/><rect class="cls-1" x="143.25" y="377.54" width="23.89" height="25.02"/><rect class="cls-1" x="167.78" y="377.54" width="23.89" height="25.02"/><rect class="cls-1" x="192.3" y="377.54" width="23.89" height="25.02"/><rect class="cls-1" x="216.83" y="377.54" width="23.89" height="25.02"/><rect class="cls-1" x="241.36" y="377.54" width="23.93" height="25.02"/><rect class="cls-1" x="279.12" y="377.54" width="23.89" height="25.02"/><rect class="cls-1" x="303.64" y="377.54" width="23.89" height="25.02"/><rect class="cls-1" x="328.17" y="377.54" width="23.89" height="25.02"/><rect class="cls-1" x="279.12" y="352.43" width="23.89" height="19.24"/><rect class="cls-1" x="303.64" y="352.43" width="23.89" height="19.24"/><rect class="cls-1" x="328.17" y="352.43" width="23.25" height="19.24"/><rect class="cls-1" x="352.69" y="353.48" width="35.33" height="18.19"/><rect class="cls-1" x="352.69" y="377.54" width="23.89" height="25.02"/><rect class="cls-1" x="279.08" y="440.24" width="23.89" height="25.02"/><rect class="cls-1" x="303.61" y="440.24" width="23.89" height="25.02"/><rect class="cls-1" x="328.13" y="440.24" width="23.89" height="25.02"/><rect class="cls-1" x="352.66" y="440.24" width="23.89" height="25.02"/><rect class="cls-1" x="377.18" y="440.24" width="23.93" height="25.02"/><rect class="cls-1" x="378.02" y="471.62" width="9.53" height="15.4"/><rect class="cls-1" x="367.51" y="471.62" width="9.33" height="15.4"/><path class="cls-1" d="M389.13,357.28v20.38H376.92V400c2.76,2.56,5.62,3.29,9.23,3.29,9.44,0,17.09-10.28,17.09-23C403.24,368.36,397.78,358.42,389.13,357.28Z"/><path class="cls-1" d="M466.45,444.92c-1.87-2.75-5.57-6-9.41-5.87-9.44.36-17.1,10.38-17.1,23.17,0,12.21,5.82,22.14,14.67,23V465.69h11.84Z"/><path class="cls-2" d="M400.26,512.1c0-2.54,1.5-4.09,3.49-4.09a3,3,0,0,1,2.17,1l-.55.65a2.15,2.15,0,0,0-1.6-.74c-1.49,0-2.48,1.22-2.48,3.18s.95,3.22,2.44,3.22a2.4,2.4,0,0,0,1.83-.88l.54.62a3,3,0,0,1-2.41,1.14C401.73,516.17,400.26,514.65,400.26,512.1Z"/><path class="cls-2" d="M409.19,508.15h1.13L413,516h-1.06l-1.38-4.4c-.28-.88-.53-1.74-.78-2.65h-.05c-.24.91-.5,1.77-.78,2.65l-1.39,4.4h-1Zm-1.27,4.68h3.63v.8h-3.63Z"/><path class="cls-2" d="M414,508.15h1v7h3.44V516H414Z"/><path class="cls-2" d="M419.87,508.15h1v7h3.44V516h-4.44Z"/><path class="cls-2" d="M425.7,508.15h4.54V509H426.7v2.47h3v.85h-3v2.86h3.66V516H425.7Z"/><path class="cls-2" d="M437.68,509.22h-3.81v-.84h4.93v.6c-1.81,2.32-2.18,4.06-2.31,7h-1A11.32,11.32,0,0,1,437.68,509.22Z"/><path class="cls-2" d="M440.25,515.2H442v-5.63h-1.4v-.63a4.7,4.7,0,0,0,1.63-.56H443v6.82h1.58V516h-4.32Z"/><path class="cls-2" d="M400.26,334.76c0-2.53,1.5-4.08,3.49-4.08a2.92,2.92,0,0,1,2.17,1l-.55.65a2.15,2.15,0,0,0-1.6-.74c-1.49,0-2.48,1.22-2.48,3.18s.95,3.22,2.44,3.22a2.38,2.38,0,0,0,1.83-.89l.54.63a3,3,0,0,1-2.41,1.14C401.73,338.84,400.26,337.32,400.26,334.76Z"/><path class="cls-2" d="M409.19,330.82h1.13l2.66,7.87h-1.06l-1.38-4.39c-.28-.88-.53-1.75-.78-2.66h-.05c-.24.92-.5,1.78-.78,2.66l-1.39,4.39h-1Zm-1.27,4.68h3.63v.8h-3.63Z"/><path class="cls-2" d="M414,330.82h1v7h3.44v.84H414Z"/><path class="cls-2" d="M419.87,330.82h1v7h3.44v.84h-4.44Z"/><path class="cls-2" d="M425.7,330.82h4.54v.85H426.7v2.47h3V335h-3v2.87h3.66v.84H425.7Z"/><path class="cls-2" d="M437.68,331.89h-3.81V331h4.93v.61c-1.81,2.31-2.18,4.06-2.31,7h-1A11.31,11.31,0,0,1,437.68,331.89Z"/><path class="cls-2" d="M439.79,338.11c2.3-2.29,3.6-3.67,3.6-4.91a1.35,1.35,0,0,0-1.45-1.5,2.25,2.25,0,0,0-1.63.92l-.57-.56a3,3,0,0,1,2.32-1.16,2.12,2.12,0,0,1,2.29,2.25c0,1.44-1.31,2.86-3.12,4.76.41,0,.89-.06,1.29-.06h2.21v.84h-4.94Z"/><path class="cls-2" d="M134.72,358.43h.8L137.4,364h-.75l-1-3.11c-.2-.62-.38-1.24-.56-1.88h0c-.18.65-.35,1.26-.55,1.88l-1,3.11h-.72Zm-.9,3.31h2.57v.57h-2.57Z"/><path class="cls-2" d="M270.32,358.43H272c1.13,0,1.91.38,1.91,1.36a1.22,1.22,0,0,1-.81,1.21v0a1.28,1.28,0,0,1,1.13,1.33c0,1.1-.86,1.64-2.11,1.64h-1.78Zm1.54,2.37c.94,0,1.34-.35,1.34-.91s-.45-.9-1.31-.9H271v1.81Zm.14,2.64c.95,0,1.52-.34,1.52-1.09s-.54-1-1.52-1h-1v2.09Z"/><path class="cls-2" d="M419.58,361.22c0-1.8,1.06-2.89,2.48-2.89a2.06,2.06,0,0,1,1.53.68l-.39.47a1.49,1.49,0,0,0-1.13-.53c-1.05,0-1.76.86-1.76,2.25s.67,2.28,1.73,2.28a1.67,1.67,0,0,0,1.29-.62l.39.44a2.15,2.15,0,0,1-1.71.81C420.62,364.11,419.58,363,419.58,361.22Z"/><path class="cls-2" d="M569.66,358.43h1.39a2.44,2.44,0,0,1,2.64,2.77c0,1.77-.92,2.81-2.61,2.81h-1.42Zm1.34,5c1.3,0,2-.81,2-2.22s-.65-2.19-2-2.19h-.63v4.41Z"/><path class="cls-2" d="M704.66,358.43h3.21v.6h-2.5v1.75h2.11v.6h-2.11v2H708V364h-3.3Z"/><path class="cls-2" d="M685.64,501.61h1.24v-4h-1v-.45a3.35,3.35,0,0,0,1.15-.4h.53v4.84h1.12v.58h-3.06Z"/><path class="cls-2" d="M685.31,422.28c1.63-1.63,2.55-2.6,2.55-3.48a1,1,0,0,0-1-1.06,1.59,1.59,0,0,0-1.16.65l-.4-.4a2.14,2.14,0,0,1,1.64-.82,1.51,1.51,0,0,1,1.63,1.6c0,1-.94,2-2.21,3.37.29,0,.63-.05.91-.05h1.56v.6h-3.5Z"/><path class="cls-2" d="M685.2,344l.35-.46a1.85,1.85,0,0,0,1.38.64,1,1,0,0,0,1.13-1c0-.65-.44-1.08-1.73-1.08v-.53c1.15,0,1.54-.44,1.54-1a.84.84,0,0,0-.94-.86,1.66,1.66,0,0,0-1.16.55l-.37-.44a2.23,2.23,0,0,1,1.56-.68c.94,0,1.62.5,1.62,1.38a1.32,1.32,0,0,1-1,1.28v0a1.4,1.4,0,0,1,1.18,1.38,1.61,1.61,0,0,1-1.79,1.54A2.28,2.28,0,0,1,685.2,344Z"/></svg>